<?xml version="1.0" encoding="UTF-8"?>
<svg id="Layer_1" xmlns="http://www.w3.org/2000/svg" version="1.1" viewBox="0 0 1024 1024">
  <!-- Generator: Adobe Illustrator 30.2.1, SVG Export Plug-In . SVG Version: 2.1.1 Build 1)  -->
  <defs>
    <style>
      .st0 {
        fill: #bb6b60;
      }

      .st1 {
        fill: #fff;
      }

      .st2 {
        fill: #6483c3;
      }
    </style>
  </defs>
  <rect class="st1" x="131.3" y="131.3" width="761.3" height="761.3" rx="75.3" ry="75.3"/>
  <path class="st2" d="M441.9,508.2c5.8.4,13.2.9,22.2,1.5,9,.6,18.1.9,27.2.9h18.5l19.1-118.5h-11.7c-21.4.4-38.7,1-51.8,1.9l-7.4-23.5c16.5,1.6,36.2,2.7,59.2,3.1h14.8l13-81.5h-37.6c-21.4.4-38.7,1.2-51.8,2.5l-6.8-24.1c16,1.6,35.6,2.7,58.6,3.1h180.8c6.6,0,11.1-2.1,13.6-6.2,2.5-3.3,6-8.1,10.5-14.5,4.5-6.4,7.6-11,9.3-13.9,3.7-4.5,8.2-5.3,13.6-2.5,4.9,2.5,10.5,6.4,16.7,11.7,6.2,5.4,12.1,10.7,17.9,16,5.8,5.4,10.1,9.9,13,13.6,2.5,2.9,3.2,6,2.2,9.3-1,3.3-3,4.9-5.9,4.9h-164.2l-12.3,81.5h37.6c3.7,0,6.4-1.6,8-4.9,1.2-2.1,3.1-4.9,5.6-8.6s4.5-7,6.2-9.9c2.5-4.1,5.8-5.3,9.9-3.7,5.8,1.6,12.9,4.3,21.3,8,8.4,3.7,17,7.5,25.6,11.4,8.6,3.9,15.6,7.5,21,10.8,2.9,1.6,4.1,4.4,3.7,8.3-.4,3.9-2.3,6.9-5.6,8.9-.8.4-1.9.9-3.1,1.5s-2.3,1.3-3.1,2.2c-4.1,2.9-6.8,5.8-8,8.6-1.2,2.9-1.9,7-1.9,12.3v89.5c1.2-1.2,2.3-2.5,3.1-3.7,2.1-3.3,5.2-8.3,9.6-15.1s7.3-11.6,8.9-14.5c3.7-5.3,8.4-5.8,14.2-1.2,6.2,4.9,13.9,11.7,23.1,20.4,9.3,8.6,15.9,15.8,20.1,21.6,2.5,2.9,3.2,5.9,2.2,8.9-1,3.1-3.2,4.6-6.5,4.6h-303c-21.4.4-38.7,1.2-51.8,2.5l-1.9-8M499.3,789c-11.1,0-16.7-5.1-16.7-15.4s.3-10,.9-22.5,1.2-28.6,1.9-48.1c.6-19.5.9-40.2.9-62s-.3-34.3-.9-48.4c-.6-14.2-2-24.4-4-30.5-.8-2.5-.6-4.5.6-6.2.8-1.6,2.9-2.1,6.2-1.2,6.2,1.2,14.4,3.4,24.7,6.5,10.3,3.1,20.6,6.3,30.9,9.6,10.3,3.3,18.5,6.4,24.7,9.3h91.3c3.7,0,6.4-1.4,8-4.3,1.2-2.1,3.1-5.1,5.6-9.3,2.5-4.1,4.5-7.6,6.2-10.5,2.5-4.1,6-5.3,10.5-3.7,5.8,1.6,13,4.4,21.6,8.3,8.6,3.9,17.4,7.9,26.2,12,8.8,4.1,15.9,7.8,21.3,11.1,3.3,1.6,4.7,4.5,4.3,8.6-.4,4.1-2.3,7.2-5.6,9.3-1.2.4-2.4.9-3.4,1.5-1,.6-2,1.3-2.8,2.2-7.4,5.4-11.1,12.3-11.1,21s.3,20.6.9,34.6c.6,14,1.2,28,1.9,42,.6,14,1.2,26.1,1.9,36.4.6,10.3.9,16.5.9,18.5,0,4.5-3.2,8.6-9.6,12.3-6.4,3.7-14.2,6.5-23.5,8.3-9.3,1.9-18.6,2.8-28.1,2.8s-16.7-5.1-16.7-15.4v-23.5h-107.4v24.1c0,4.5-3.2,8.5-9.6,12-6.4,3.5-14.3,6.2-23.8,8-9.5,1.9-18.9,2.8-28.4,2.8ZM561,723.6h107.4v-124.7h-107.4v124.7ZM580.7,510.7h67.3v-118.5h-48.8l-18.5,118.5Z"/>
  <path class="st0" d="M229.6,371.8l-6.8-24.7c12.3,1.2,24,2.2,34.9,2.8,10.9.6,23.3.9,37.3.9h72.2c6.2,0,10.7-2.1,13.6-6.2,2.1-2.9,5.4-7.4,10.2-13.6,4.7-6.2,8.7-11.3,12-15.4,3.3-4.5,7.6-5.1,13-1.9,7.4,4.5,15.8,10.9,25.3,19.1,9.5,8.2,16.7,15.2,21.6,21,2.9,2.9,3.6,6.3,2.2,10.2-1.4,3.9-3.8,5.9-7.1,5.9h-162.9c-15.6,0-28.6.1-38.9.3-10.3.2-19.1.7-26.5,1.5ZM242.6,294.7l-6.8-25.3c16,2.1,35.2,3.5,57.4,4.3h59.9c5.8,0,10.3-1.9,13.6-5.6,2.5-3.3,5.3-7.1,8.6-11.4,3.3-4.3,6.4-8.3,9.3-12,3.3-5.3,7.8-6.2,13.6-2.5,5.8,4.1,12.7,9.7,20.7,16.7,8,7,14.7,13.6,20.1,19.7,2.5,2.9,3.1,5.9,1.9,8.9s-3.5,4.6-6.8,4.6h-140.1c-21,.4-38.1,1.2-51.2,2.5ZM437.6,523.6h-140.1c-21,.4-38.1,1-51.2,1.9l-6.8-24.7c16.5,2.1,35.8,3.5,58,4.3h59.9c6.2,0,10.5-1.9,13-5.6,2.5-3.3,5.4-7.1,8.9-11.4,3.5-4.3,6.7-8.5,9.6-12.7,3.7-4.5,8.2-5.1,13.6-1.9,5.8,3.7,12.4,8.9,20.1,15.7,7.6,6.8,14.1,13.1,19.4,18.8M246.3,450.2l-6.8-25.3c16.5,2.1,35.8,3.5,58,4.3h55.5c5.3,0,9.7-1.6,13-4.9,2.5-3.3,5.3-7.2,8.6-11.7,3.3-4.5,6.4-8.6,9.3-12.3,3.7-4.9,8.2-5.8,13.6-2.5,5.8,4.1,12.7,9.7,20.7,16.7,8,7,14.7,13.6,20.1,19.7,2.9,2.9,3.6,5.9,2.2,8.9-1.4,3.1-3.6,4.6-6.5,4.6h-136.4c-21,.4-38.1,1.2-51.2,2.5ZM261.1,789c-11.1,0-16.7-5.1-16.7-15.4s.3-9.6.9-21.3,1.2-26.2,1.9-43.5c.6-17.3.9-35,.9-53.1v-36.7c0-12.5-.2-23.5-.6-33-.4-9.5-1-15.2-1.9-17.3-.8-2.9-.4-4.9,1.2-6.2,1.2-1.2,3.3-1.6,6.2-1.2,7,2.1,17.1,5.5,30.2,10.2,13.2,4.7,24.7,9.2,34.6,13.3h43.2c4.5,0,7.8-1.6,9.9-4.9,1.6-2.5,3.1-4.9,4.3-7.4s2.7-5.1,4.3-8c2.1-3.7,5.8-4.7,11.1-3.1,3.7.8,9.5,2.8,17.3,5.9,7.8,3.1,15.8,6.4,24.1,9.9,8.2,3.5,14.6,6.7,19.1,9.6,3.3,2.1,4.9,5.6,4.9,10.5s-2.3,8.4-6.8,10.5c-.4.4-.8.7-1.2.9-.4.2-.8.5-1.2.9-4.5,2.9-6.8,8.2-6.8,16s.2,17.8.6,31.2c.4,13.4.8,27.1,1.2,41,.4,14,.8,26,1.2,36.1.4,10.1.6,15.7.6,17,0,4.1-2.9,7.9-8.6,11.4-5.8,3.5-13,6.4-21.6,8.6-8.6,2.3-17.5,3.4-26.5,3.4s-16.7-5.1-16.7-15.4v-17.9h-53.1v25.3c0,7-5.8,12.5-17.3,16.7-11.5,4.1-24.5,6.2-38.9,6.2ZM317.2,722.4h53.1v-119.1h-53.1v119.1Z"/>
</svg>